<?xml version="1.0" encoding="utf-8"?>
<!-- Generator: Adobe Illustrator 28.0.0, SVG Export Plug-In . SVG Version: 6.00 Build 0)  -->
<svg version="1.1" id="a" xmlns="http://www.w3.org/2000/svg" xmlns:xlink="http://www.w3.org/1999/xlink" x="0px" y="0px"
	 width="238.9px" height="238.9px" viewBox="0 0 238.9 238.9" style="enable-background:new 0 0 238.9 238.9;" xml:space="preserve"
	>
<style type="text/css">
	.st0{stroke:#FFFFFF;stroke-width:4;stroke-miterlimit:10;}
	.st1{fill:#FFFFFF;}
	.st2{enable-background:new    ;}
</style>
<circle class="st0" cx="-139.5" cy="119.5" r="117.5"/>
<path class="st1" d="M-128.5,79.2V171h30.6v15.8h-79.4V171h30.4V95h-30.4V79.2H-128.5L-128.5,79.2z M-128.5,41.8v21.8h-18.4V41.8
	H-128.5z"/>
<circle class="st0" cx="119.5" cy="119.5" r="117.5"/>
<g class="st2">
	<path class="st1" d="M104.4,187.7c2.9-1.1,5.2-2.9,6.7-4.9c1.3-2,2.2-4.5,2.5-7.2c0.2-2.7,0.2-5.4,0.2-8.1v-48.9
		c0-5.2-0.9-8.5-2.9-10.3s-5.6-2.7-10.8-2.7H77.7v-6.7c9-1.3,17.7-2.9,26-4.9c8.3-2,15-3.8,20.4-5.4h9c-0.2,3.8-0.2,7.6-0.2,11.4
		c0,3.8,0,7.6,0,11v56.5c0,2.7,0.2,5.4,0.4,8.1c0.2,2.7,0.9,5.2,2.5,7.2c1.3,2,3.6,3.8,6.7,4.9c2.9,1.3,7.4,2,13,2h10.3v8.1H77.7
		v-8.1h13.5C96.8,189.7,101.2,189.1,104.4,187.7z M106.6,62.4c-3.4-3.4-5.2-7.4-5.2-12.3c0-4.7,1.8-9,5.2-12.3
		c3.4-3.4,7.4-4.9,12.3-4.9c4.7,0,9,1.6,12.3,4.9s4.9,7.6,4.9,12.3c0,4.9-1.6,9-4.9,12.3s-7.6,5.2-12.3,5.2
		C114,67.5,110,65.7,106.6,62.4z"/>
</g>
</svg>
